<svg width="177" height="79" viewBox="0 0 177 79" fill="none" xmlns="http://www.w3.org/2000/svg">
<path d="M39.3486 73.9184C33.2209 73.9212 27.2024 72.2961 21.9089 69.2093C16.6155 66.1226 12.2371 61.6849 9.22169 56.3504C6.20632 51.016 4.66226 44.9762 4.74747 38.849C4.83269 32.7219 6.54412 26.7274 9.70667 21.4788C12.8692 16.2303 17.3693 11.9161 22.7466 8.97773C28.1239 6.03936 34.1852 4.58226 40.3105 4.75554C46.4358 4.92882 52.4051 6.72624 57.6076 9.96391C62.8102 13.2016 67.0592 17.7633 69.92 23.1822L74.9479 22.6367C71.1725 14.5842 64.7797 8.04876 56.8123 4.09677C48.845 0.144789 39.7736 -0.990473 31.0781 0.876211C22.3826 2.74289 14.5763 7.50133 8.933 14.3751C3.28968 21.2489 0.142419 29.8324 0.00471821 38.7249C-0.132983 47.6174 2.74701 56.2942 8.17479 63.3394C13.6026 70.3847 21.2577 75.3825 29.8913 77.5175C38.5248 79.6526 47.6271 78.7987 55.7129 75.0953C63.7988 71.3919 70.3909 65.0576 74.4138 57.1258L70.0154 55.3138C67.0913 60.9213 62.6871 65.6207 57.2808 68.9019C51.8745 72.183 45.6727 73.9206 39.3486 73.926" fill="#F5831F"/>
<path d="M58.6664 30.938C57.8711 28.7205 56.6865 26.6626 55.1683 24.8612C53.518 22.9447 51.433 21.4509 49.0876 20.5047C48.537 20.2687 47.9742 20.0624 47.4015 19.8867V12.1924H41.2559V18.9254C41.0003 18.9025 40.7486 18.9025 40.493 18.9025H37.5709V12.1924H31.4177V18.8949H25.2225V57.7443H31.4177V64.1035H37.5671V57.7443H40.4892C40.7486 57.7443 41.0003 57.7443 41.2521 57.7214V64.1035H47.3977V56.7372C48.0191 56.5426 48.6291 56.3133 49.2249 56.0505C51.6123 55.0595 53.7256 53.5075 55.3857 51.5262C56.9084 49.6563 58.0724 47.5211 58.819 45.2281C60.3194 40.5738 60.2632 35.5575 58.6588 30.938H58.6664ZM49.6903 46.96C47.6558 49.4498 44.5862 50.6972 40.4815 50.7023H32.4706V25.8301H40.4815C44.4031 25.8301 47.3888 27.0063 49.4386 29.3587C51.4883 31.7112 52.5539 34.5684 52.6353 37.9305C52.7065 41.4426 51.7249 44.4499 49.6903 46.9524" fill="#FED900"/>
<path d="M63.8699 27.3181C66.7897 26.9457 69.7308 26.7648 72.6743 26.7764C77.252 26.7764 80.3877 27.3982 82.5202 28.8669C83.3802 29.436 84.0825 30.213 84.562 31.126C85.0415 32.039 85.2826 33.0582 85.263 34.0893C85.263 37.4539 82.4706 39.7351 79.4913 40.6239V40.7422C81.761 41.4365 83.1344 43.2561 83.9393 45.77C84.9349 49.0202 85.7856 52.0339 86.4494 53.0409H80.4373C79.9643 52.278 79.2052 50.1417 78.3049 46.8916C77.4084 43.4888 75.894 42.4054 72.5828 42.3139H69.6645V53.0295H63.8699V27.3181ZM69.6645 38.831H73.0977C77.0269 38.831 79.4913 37.1296 79.4913 34.5356C79.4913 31.6746 77.0269 30.3585 73.2427 30.3585C72.0391 30.3304 70.8354 30.4083 69.6454 30.5912L69.6645 38.831Z" fill="#FED900"/>
<path d="M99.5605 45.6286L96.8139 53.0177H90.8019L101.025 26.9478H108.46L118.825 53.0177H112.576L109.689 45.6286H99.5605ZM108.697 42.0313L106.187 35.611C105.573 34.0279 105.042 32.2464 104.577 30.7396H104.482C104.009 32.2464 103.536 34.0661 102.956 35.611L100.495 42.0313H108.697Z" fill="#FED900"/>
<path d="M125.642 26.9556H131.463V49.062H144.575V53.0446H125.642V26.9556Z" fill="#FED900"/>
<path d="M157.735 45.6286L154.989 53.0177H148.977L159.204 26.9478H166.635L177 53.0177H170.755L167.864 45.6286H157.735ZM166.891 42.0313L164.381 35.611C163.767 34.0279 163.236 32.2464 162.771 30.7396H162.676C162.203 32.2464 161.73 34.0661 161.15 35.611L158.689 42.0313H166.891Z" fill="#FED900"/>
</svg>
